<?xml version="1.0" encoding="UTF-8" standalone="no"?>
<!DOCTYPE svg PUBLIC "-//W3C//DTD SVG 1.1//EN" "http://www.w3.org/Graphics/SVG/1.1/DTD/svg11.dtd">
<!-- Created with Vectornator (http://vectornator.io/) -->
<svg height="100%" stroke-miterlimit="10" style="fill-rule:nonzero;clip-rule:evenodd;stroke-linecap:round;stroke-linejoin:round;" version="1.1" viewBox="0 0 820 312" width="100%" xml:space="preserve" xmlns="http://www.w3.org/2000/svg" xmlns:vectornator="http://vectornator.io" xmlns:xlink="http://www.w3.org/1999/xlink">
<defs/>
<g id="Layer-1" vectornator:layerName="Layer 1">
<path d="M84.7197 65.3578L151.856 65.3578C151.856 72.3401 151.568 78.6824 150.993 84.3846C150.418 90.0869 149.267 95.3818 147.541 100.269C145.125 107.135 141.846 113.216 137.704 118.511C133.562 123.806 128.701 128.228 123.12 131.777C117.54 135.327 111.413 138.032 104.74 139.894C98.0664 141.756 91.0479 142.687 83.6841 142.687C73.559 142.687 64.3256 141 55.9839 137.625C47.6422 134.25 40.4799 129.508 34.4969 123.399C28.5139 117.289 23.854 109.957 20.5173 101.404C17.1807 92.8507 15.5123 83.3955 15.5123 73.0383C15.5123 62.7976 17.1519 53.4005 20.431 44.8471C23.7102 36.2937 28.37 28.9914 34.4106 22.94C40.4511 16.8886 47.7285 12.1755 56.2428 8.80074C64.7571 5.42594 74.2494 3.73854 84.7197 3.73854C98.2965 3.73854 110.205 6.70604 120.445 12.641C130.685 18.576 138.797 27.7695 144.78 40.2213L112.679 53.6623C109.687 46.4472 105.804 41.2687 101.029 38.1266C96.2542 34.9845 90.8177 33.4135 84.7197 33.4135C79.6571 33.4135 75.0548 34.3736 70.9127 36.2937C66.7706 38.2139 63.2326 40.9486 60.2986 44.498C57.3646 48.0474 55.0635 52.324 53.3951 57.3281C51.7268 62.3321 50.8926 67.9179 50.8926 74.0857C50.8926 79.6716 51.6117 84.8501 53.05 89.6214C54.4882 94.3927 56.6455 98.5239 59.522 102.015C62.3984 105.506 65.9652 108.212 70.2224 110.132C74.4795 112.052 79.427 113.012 85.0648 113.012C88.4015 113.012 91.6231 112.634 94.7297 111.878C97.8363 111.121 100.626 109.899 103.1 108.212C105.574 106.525 107.616 104.343 109.227 101.666C110.838 98.9894 111.931 95.731 112.506 91.8907L84.7197 91.8907L84.7197 65.3578Z" fill="#f2b807" fill-rule="evenodd" opacity="1" stroke="none"/>
<path d="M192.614 72.6946C192.614 77.9314 193.592 82.7608 195.548 87.183C197.504 91.6051 200.151 95.4454 203.487 98.7039C206.824 101.962 210.707 104.493 215.137 106.297C219.567 108.101 224.255 109.003 229.203 109.003C234.15 109.003 238.839 108.101 243.269 106.297C247.698 104.493 251.61 101.962 255.005 98.7039C258.399 95.4454 261.074 91.6051 263.03 87.183C264.986 82.7608 265.964 77.9314 265.964 72.6946C265.964 67.4579 264.986 62.6284 263.03 58.2062C261.074 53.7841 258.399 49.9438 255.005 46.6854C251.61 43.4269 247.698 40.8958 243.269 39.0921C238.839 37.2883 234.15 36.3864 229.203 36.3864C224.255 36.3864 219.567 37.2883 215.137 39.0921C210.707 40.8958 206.824 43.4269 203.487 46.6854C200.151 49.9438 197.504 53.7841 195.548 58.2062C193.592 62.6284 192.614 67.4579 192.614 72.6946ZM157.234 72.6946C157.234 62.9193 159.017 53.8132 162.584 45.3762C166.151 36.9392 171.099 29.5786 177.427 23.2945C183.755 17.0104 191.32 12.0937 200.122 8.5443C208.924 4.99494 218.618 3.22026 229.203 3.22026C239.673 3.22026 249.338 4.99494 258.197 8.5443C267.057 12.0937 274.68 17.0104 281.065 23.2945C287.451 29.5786 292.427 36.9392 295.994 45.3762C299.561 53.8132 301.344 62.9193 301.344 72.6946C301.344 82.4699 299.561 91.576 295.994 100.013C292.427 108.45 287.451 115.811 281.065 122.095C274.68 128.379 267.057 133.296 258.197 136.845C249.338 140.394 239.673 142.169 229.203 142.169C218.618 142.169 208.924 140.394 200.122 136.845C191.32 133.296 183.755 128.379 177.427 122.095C171.099 115.811 166.151 108.45 162.584 100.013C159.017 91.576 157.234 82.4699 157.234 72.6946Z" fill="#f2b807" fill-rule="evenodd" opacity="1" stroke="none"/>
<path d="M339.247 6.96818L339.217 109.53L430.439 109.786L430.439 138.762L308.261 138.762L308.261 7.14513L339.247 6.96818Z" fill="#f2b807" fill-rule="evenodd" opacity="1" stroke="none"/>
<path d="M455.248 110.045L463.334 110.045C469.442 110.045 474.892 109.114 479.684 107.252C484.475 105.39 488.518 102.83 491.812 99.5713C495.106 96.3128 497.621 92.4434 499.358 87.9631C501.095 83.4828 501.963 78.566 501.963 73.2129C501.963 67.9761 501.065 63.0885 499.268 58.55C497.471 54.0114 494.926 50.113 491.632 46.8545C488.338 43.5961 484.295 41.0359 479.504 39.174C474.713 37.312 469.323 36.381 463.334 36.381L455.248 36.381L455.248 110.045ZM407.36 7.40427L465.025 7.40427C475.232 7.40427 484.81 9.20805 493.758 12.8156C502.706 16.4231 510.527 21.2235 517.221 27.2167C523.916 33.2099 529.185 40.1922 533.029 48.1637C536.874 56.1352 538.796 64.485 538.796 73.2129C538.796 81.8245 536.907 90.116 533.129 98.0875C529.351 106.059 524.115 113.07 517.42 119.122C510.726 125.173 502.905 130.003 493.957 133.61C485.009 137.218 475.365 139.022 465.025 139.022L407.36 139.022L407.36 7.40427Z" fill="#f2b807" fill-rule="evenodd" opacity="1" stroke="none"/>
<path d="M652.195 36.381L594.235 36.381L594.235 58.3754L648.961 58.3754L648.961 87.3521L594.235 87.3521L594.235 110.045L652.195 110.045L652.195 139.022L545.479 139.022L545.479 7.40427L652.195 7.40427L652.195 36.381Z" fill="#f2b807" fill-rule="evenodd" opacity="1" stroke="none"/>
<path d="M658.744 139.022L658.744 7.40427L692.571 7.40427L755.047 87.8758L755.047 7.40427L788.702 7.40427L788.702 139.022L755.047 139.022L692.571 58.55L692.571 139.022L658.744 139.022Z" fill="#f2b807" fill-rule="evenodd" opacity="1" stroke="none"/>
<path d="M145.056 184.011L145.056 297.126L79.5881 297.126L79.5881 184.011L19.8535 184.011L19.1399 152.076L198.833 152.076L198.833 184.011L145.056 184.011Z" fill="#f2b807" fill-rule="evenodd" opacity="1" stroke="none"/>
<path d="M270.779 216.719L285.024 216.719C299.91 216.719 311.332 215.18 319.289 212.102C327.245 209.024 331.223 204.6 331.223 198.828C331.223 193.057 327.245 188.633 319.289 185.555C311.332 182.477 299.91 180.938 285.024 180.938L270.779 180.938L270.779 216.719ZM436.712 296.939L342.773 296.939L270.779 241.151L270.779 296.939L195.32 296.939L195.32 151.889L312.744 151.889C328.913 151.889 343.03 153.076 355.093 155.448C367.156 157.821 377.102 161.059 384.93 165.163C392.759 169.267 398.662 174.012 402.64 179.399C406.618 184.785 408.608 190.556 408.608 196.712C408.608 207.742 403.282 216.687 392.63 223.549C381.979 230.41 366.258 235.059 345.468 237.496L436.712 296.939Z" fill="#f2b807" fill-rule="evenodd" opacity="1" stroke="none"/>
<path d="M598.712 184.452L505.491 184.452L505.491 208.692L593.511 208.692L593.511 240.626L505.491 240.626L505.491 265.634L598.712 265.634L598.712 297.568L427.074 297.568L427.074 152.518L598.712 152.518L598.712 184.452Z" fill="#f2b807" fill-rule="evenodd" opacity="1" stroke="none"/>
<path d="M789.103 184.452L689.51 184.452L689.51 208.692L783.546 208.692L783.546 240.626L689.51 240.626L689.51 265.634L789.103 265.634L789.103 297.568L605.732 297.568L605.732 152.518L789.103 152.518L789.103 184.452Z" fill="#f2b807" fill-rule="evenodd" opacity="1" stroke="none"/>
</g>
</svg>
