<?xml version="1.0" encoding="UTF-8" standalone="no"?>
<!DOCTYPE svg PUBLIC "-//W3C//DTD SVG 1.1//EN" "http://www.w3.org/Graphics/SVG/1.1/DTD/svg11.dtd">
<!-- Created with Vectornator (http://vectornator.io/) -->
<svg height="100%" stroke-miterlimit="10" style="fill-rule:nonzero;clip-rule:evenodd;stroke-linecap:round;stroke-linejoin:round;" version="1.1" viewBox="0 0 1100 310" width="100%" xml:space="preserve" xmlns="http://www.w3.org/2000/svg" xmlns:vectornator="http://vectornator.io" xmlns:xlink="http://www.w3.org/1999/xlink">
<defs/>
<clipPath id="ArtboardFrame">
<rect height="310" width="1100" x="0" y="0"/>
</clipPath>
<g clip-path="url(#ArtboardFrame)" id="Layer-1" vectornator:layerName="Layer 1">
<path d="M-0.918686-0.15589L1111.39-0.15589L1111.39 321.633L-0.918686 321.633L-0.918686-0.15589Z" fill="#f2b807" fill-rule="evenodd" opacity="1" stroke="none"/>
<path d="M302.294 154.598L302.294 299.124L13.1328 299.124L13.1328 9.48764L302.294 9.48764L302.294 154.598" fill="#ffffff" fill-rule="evenodd" opacity="1" stroke="#f2b807" stroke-linecap="round" stroke-linejoin="round" stroke-width="2"/>
<path d="M14.1956 154.298C14.1956 74.8472 78.4869 10.4396 157.794 10.4396C237.101 10.4396 301.393 74.8472 301.393 154.298C301.393 233.748 237.101 298.156 157.794 298.156C78.4869 298.156 14.1956 233.748 14.1956 154.298Z" fill="#f7bc07" fill-rule="evenodd" opacity="1" stroke="#f2b807" stroke-linecap="round" stroke-linejoin="round" stroke-width="2"/>
<path d="M14.4882 154.625L301.293 155.4C301.293 155.4 237.13 163.125 201.888 198.29C166.646 233.456 158.159 297.747 158.159 297.747C158.159 297.747 148.732 233.759 113.77 198.407C78.8079 163.055 14.4882 154.625 14.4882 154.625Z" fill="#ffffff" fill-rule="evenodd" opacity="1" stroke="#f2b807" stroke-linecap="round" stroke-linejoin="round" stroke-width="2"/>
<path d="M380.026 67.983L447.163 67.983C447.163 74.9653 446.875 81.3076 446.3 87.0098C445.725 92.7121 444.574 98.007 442.848 102.894C440.432 109.76 437.153 115.841 433.011 121.136C428.869 126.431 424.008 130.853 418.427 134.402C412.847 137.952 406.72 140.657 400.047 142.519C393.373 144.381 386.355 145.312 378.991 145.312C368.866 145.312 359.632 143.625 351.291 140.25C342.949 136.875 335.787 132.133 329.804 126.024C323.821 119.914 319.161 112.582 315.824 104.029C312.487 95.4759 310.819 86.0207 310.819 75.6635C310.819 65.4228 312.459 56.0257 315.738 47.4723C319.017 38.9189 323.677 31.6166 329.717 25.5652C335.758 19.5138 343.035 14.8007 351.55 11.426C360.064 8.05117 369.556 6.36377 380.026 6.36377C393.603 6.36377 405.512 9.33127 415.752 15.2662C425.992 21.2012 434.104 30.3947 440.087 42.8465L407.986 56.2875C404.994 49.0724 401.111 43.8939 396.336 40.7518C391.561 37.6097 386.124 36.0387 380.026 36.0387C374.964 36.0387 370.362 36.9988 366.219 38.9189C362.077 40.8391 358.539 43.5738 355.605 47.1232C352.671 50.6726 350.37 54.9492 348.702 59.9533C347.034 64.9573 346.199 70.5431 346.199 76.7109C346.199 82.2968 346.918 87.4753 348.357 92.2466C349.795 97.0179 351.952 101.149 354.829 104.64C357.705 108.131 361.272 110.837 365.529 112.757C369.786 114.677 374.734 115.637 380.371 115.637C383.708 115.637 386.93 115.259 390.036 114.503C393.143 113.746 395.933 112.524 398.407 110.837C400.881 109.15 402.923 106.968 404.534 104.291C406.145 101.615 407.238 98.3562 407.813 94.5159L380.026 94.5159L380.026 67.983Z" fill="#ffffff" fill-rule="evenodd" opacity="1" stroke="none"/>
<path d="M487.088 75.8381C487.088 81.0749 488.066 85.9043 490.022 90.3265C491.978 94.7486 494.625 98.5889 497.961 101.847C501.298 105.106 505.181 107.637 509.611 109.441C514.041 111.245 518.729 112.147 523.677 112.147C528.624 112.147 533.313 111.245 537.743 109.441C542.172 107.637 546.084 105.106 549.479 101.847C552.873 98.5889 555.548 94.7486 557.504 90.3265C559.46 85.9043 560.438 81.0749 560.438 75.8381C560.438 70.6014 559.46 65.7719 557.504 61.3497C555.548 56.9276 552.873 53.0873 549.479 49.8289C546.084 46.5704 542.172 44.0393 537.743 42.2356C533.313 40.4318 528.624 39.5299 523.677 39.5299C518.729 39.5299 514.041 40.4318 509.611 42.2356C505.181 44.0393 501.298 46.5704 497.961 49.8289C494.625 53.0873 491.978 56.9276 490.022 61.3497C488.066 65.7719 487.088 70.6014 487.088 75.8381ZM451.708 75.8381C451.708 66.0628 453.491 56.9567 457.058 48.5197C460.625 40.0827 465.573 32.7221 471.901 26.438C478.229 20.1539 485.794 15.2372 494.596 11.6878C503.398 8.13845 513.092 6.36377 523.677 6.36377C534.147 6.36377 543.812 8.13845 552.671 11.6878C561.531 15.2372 569.154 20.1539 575.539 26.438C581.925 32.7221 586.901 40.0827 590.468 48.5197C594.035 56.9567 595.818 66.0628 595.818 75.8381C595.818 85.6134 594.035 94.7195 590.468 103.157C586.901 111.594 581.925 118.955 575.539 125.239C569.154 131.523 561.531 136.44 552.671 139.989C543.812 143.538 534.147 145.313 523.677 145.313C513.092 145.313 503.398 143.538 494.596 139.989C485.794 136.44 478.229 131.523 471.901 125.239C465.573 118.955 460.625 111.594 457.058 103.157C453.491 94.7195 451.708 85.6134 451.708 75.8381Z" fill="#ffffff" fill-rule="evenodd" opacity="1" stroke="none"/>
<path d="M633.721 10.1117L633.691 112.674L724.913 112.93L724.913 141.906L602.735 141.906L602.735 10.2886L633.721 10.1117Z" fill="#ffffff" fill-rule="evenodd" opacity="1" stroke="none"/>
<path d="M755.896 113.189L763.385 113.189C769.041 113.189 774.089 112.258 778.527 110.396C782.964 108.534 786.708 105.974 789.758 102.715C792.809 99.4563 795.138 95.5869 796.747 91.1066C798.355 86.6263 799.159 81.7095 799.159 76.3564C799.159 71.1196 798.327 66.232 796.663 61.6935C794.999 57.1549 792.642 53.2565 789.592 49.998C786.541 46.7396 782.797 44.1794 778.36 42.3175C773.923 40.4555 768.931 39.5245 763.385 39.5245L755.896 39.5245L755.896 113.189ZM711.547 10.5478L764.951 10.5478C774.404 10.5478 783.274 12.3516 791.56 15.9591C799.847 19.5666 807.09 24.367 813.29 30.3602C819.49 36.3534 824.369 43.3357 827.929 51.3072C831.49 59.2787 833.27 67.6285 833.27 76.3564C833.27 84.968 831.521 93.2595 828.022 101.231C824.523 109.203 819.674 116.214 813.474 122.266C807.275 128.317 800.032 133.147 791.745 136.754C783.458 140.362 774.527 142.166 764.951 142.166L711.547 142.166L711.547 10.5478Z" fill="#ffffff" fill-rule="evenodd" opacity="1" stroke="none"/>
<path d="M946.669 39.5245L888.709 39.5245L888.709 61.5189L943.435 61.5189L943.435 90.4956L888.709 90.4956L888.709 113.189L946.669 113.189L946.669 142.166L839.953 142.166L839.953 10.5478L946.669 10.5478L946.669 39.5245Z" fill="#ffffff" fill-rule="evenodd" opacity="1" stroke="none"/>
<path d="M953.218 142.166L953.218 10.5478L987.045 10.5478L1049.52 91.0193L1049.52 10.5478L1083.18 10.5478L1083.18 142.166L1049.52 142.166L987.045 61.6935L987.045 142.166L953.218 142.166Z" fill="#ffffff" fill-rule="evenodd" opacity="1" stroke="none"/>
<path d="M439.53 187.155L439.53 300.27L374.062 300.27L374.062 187.155L314.328 187.155L313.614 155.22L493.307 155.22L493.307 187.155L439.53 187.155Z" fill="#ffffff" fill-rule="evenodd" opacity="1" stroke="none"/>
<path d="M565.253 219.863L579.498 219.863C594.384 219.863 605.806 218.324 613.763 215.246C621.719 212.168 625.697 207.744 625.697 201.972C625.697 196.201 621.719 191.777 613.763 188.699C605.806 185.621 594.384 184.082 579.498 184.082L565.253 184.082L565.253 219.863ZM731.186 300.083L637.247 300.083L565.253 244.295L565.253 300.083L489.794 300.083L489.794 155.033L607.218 155.033C623.387 155.033 637.504 156.22 649.567 158.592C661.63 160.965 671.576 164.203 679.404 168.307C687.233 172.411 693.136 177.156 697.114 182.543C701.092 187.929 703.082 193.7 703.082 199.856C703.082 210.886 697.756 219.831 687.104 226.693C676.453 233.554 660.732 238.203 639.942 240.64L731.186 300.083Z" fill="#ffffff" fill-rule="evenodd" opacity="1" stroke="none"/>
<path d="M893.186 187.596L799.965 187.596L799.965 211.836L887.985 211.836L887.985 243.77L799.965 243.77L799.965 268.778L893.186 268.778L893.186 300.712L721.548 300.712L721.548 155.662L893.186 155.662L893.186 187.596Z" fill="#ffffff" fill-rule="evenodd" opacity="1" stroke="none"/>
<path d="M1084.41 186.934L984.817 186.934L984.817 211.174L1078.85 211.174L1078.85 243.108L984.817 243.108L984.817 268.116L1084.41 268.116L1084.41 300.05L901.039 300.05L901.039 155L1084.41 155L1084.41 186.934Z" fill="#ffffff" fill-rule="evenodd" opacity="1" stroke="none"/>
</g>
</svg>
