<?xml version="1.0" encoding="UTF-8" standalone="no"?>
<!DOCTYPE svg PUBLIC "-//W3C//DTD SVG 1.1//EN" "http://www.w3.org/Graphics/SVG/1.1/DTD/svg11.dtd">
<!-- Created with Vectornator (http://vectornator.io/) -->
<svg height="100%" stroke-miterlimit="10" style="fill-rule:nonzero;clip-rule:evenodd;stroke-linecap:round;stroke-linejoin:round;" version="1.1" viewBox="0 0 1280 720" width="100%" xml:space="preserve" xmlns="http://www.w3.org/2000/svg" xmlns:vectornator="http://vectornator.io" xmlns:xlink="http://www.w3.org/1999/xlink">
<defs/>
<g id="Layer-1" vectornator:layerName="Layer 1">
<g opacity="1">
<path d="M123.569 201.487L1221.93 201.487L1221.93 510.139L123.569 510.139L123.569 201.487Z" fill="#ffffff" fill-rule="evenodd" opacity="1" stroke="#000000" stroke-linecap="round" stroke-linejoin="round" stroke-width="2"/>
<g opacity="1">
<path d="M426.781 356.241L426.781 500.767L137.621 500.767L137.621 211.13L426.781 211.13L426.781 356.241" fill="#f2b807" fill-rule="evenodd" opacity="1" stroke="#f2b807" stroke-linecap="round" stroke-linejoin="round" stroke-width="2"/>
<path d="M138.683 355.94C138.683 276.49 202.975 212.082 282.282 212.082C361.589 212.082 425.881 276.49 425.881 355.94C425.881 435.391 361.589 499.799 282.282 499.799C202.975 499.799 138.683 435.391 138.683 355.94Z" fill="#ffffff" fill-rule="evenodd" opacity="1" stroke="#f2b807" stroke-linecap="round" stroke-linejoin="round" stroke-width="2"/>
<path d="M138.976 356.268L425.781 357.043C425.781 357.043 361.617 364.768 326.376 399.933C291.134 435.098 282.647 499.39 282.647 499.39C282.647 499.39 273.219 435.402 238.257 400.049C203.296 364.698 138.976 356.268 138.976 356.268Z" fill="#f2b807" fill-rule="evenodd" opacity="1" stroke="#f2b807" stroke-linecap="round" stroke-linejoin="round" stroke-width="2"/>
</g>
<g opacity="1">
<path d="M503.682 270.144L570.818 270.144C570.818 277.126 570.53 283.468 569.955 289.171C569.38 294.873 568.229 300.168 566.503 305.055C564.087 311.921 560.808 318.002 556.666 323.297C552.524 328.592 547.663 333.014 542.082 336.563C536.502 340.113 530.375 342.818 523.702 344.68C517.028 346.542 510.01 347.473 502.646 347.473C492.521 347.473 483.287 345.786 474.946 342.411C466.604 339.036 459.442 334.294 453.459 328.185C447.476 322.075 442.816 314.743 439.479 306.19C436.143 297.637 434.474 288.182 434.474 277.824C434.474 267.584 436.114 258.187 439.393 249.633C442.672 241.08 447.332 233.777 453.372 227.726C459.413 221.675 466.69 216.962 475.205 213.587C483.719 210.212 493.211 208.525 503.682 208.525C517.258 208.525 529.167 211.492 539.407 217.427C549.647 223.362 557.759 232.556 563.742 245.007L531.641 258.448C528.649 251.233 524.766 246.055 519.991 242.913C515.216 239.771 509.78 238.2 503.682 238.2C498.619 238.2 494.017 239.16 489.875 241.08C485.732 243 482.194 245.735 479.26 249.284C476.326 252.833 474.025 257.11 472.357 262.114C470.689 267.118 469.854 272.704 469.854 278.872C469.854 284.458 470.574 289.636 472.012 294.407C473.45 299.179 475.607 303.31 478.484 306.801C481.36 310.292 484.927 312.998 489.184 314.918C493.441 316.838 498.389 317.798 504.027 317.798C507.363 317.798 510.585 317.42 513.692 316.664C516.798 315.907 519.588 314.685 522.062 312.998C524.536 311.311 526.578 309.129 528.189 306.452C529.8 303.775 530.893 300.517 531.468 296.677L503.682 296.677L503.682 270.144Z" fill="#f2b807" fill-rule="evenodd" opacity="1" stroke="none"/>
<path d="M611.576 277.481C611.576 282.717 612.554 287.547 614.51 291.969C616.466 296.391 619.113 300.231 622.449 303.49C625.786 306.748 629.669 309.279 634.099 311.083C638.529 312.887 643.217 313.789 648.165 313.789C653.112 313.789 657.801 312.887 662.231 311.083C666.66 309.279 670.572 306.748 673.967 303.49C677.361 300.231 680.036 296.391 681.992 291.969C683.948 287.547 684.926 282.717 684.926 277.481C684.926 272.244 683.948 267.414 681.992 262.992C680.036 258.57 677.361 254.73 673.967 251.471C670.572 248.213 666.66 245.682 662.231 243.878C657.801 242.074 653.112 241.172 648.165 241.172C643.217 241.172 638.529 242.074 634.099 243.878C629.669 245.682 625.786 248.213 622.449 251.471C619.113 254.73 616.466 258.57 614.51 262.992C612.554 267.414 611.576 272.244 611.576 277.481ZM576.196 277.481C576.196 267.705 577.979 258.599 581.546 250.162C585.113 241.725 590.061 234.365 596.389 228.081C602.717 221.796 610.282 216.88 619.084 213.33C627.886 209.781 637.58 208.006 648.165 208.006C658.635 208.006 668.3 209.781 677.159 213.33C686.019 216.88 693.642 221.796 700.027 228.081C706.413 234.365 711.389 241.725 714.956 250.162C718.523 258.599 720.306 267.705 720.306 277.481C720.306 287.256 718.523 296.362 714.956 304.799C711.389 313.236 706.413 320.597 700.027 326.881C693.642 333.165 686.019 338.082 677.159 341.631C668.3 345.18 658.635 346.955 648.165 346.955C637.58 346.955 627.886 345.18 619.084 341.631C610.282 338.082 602.717 333.165 596.389 326.881C590.061 320.597 585.113 313.236 581.546 304.799C577.979 296.362 576.196 287.256 576.196 277.481Z" fill="#f2b807" fill-rule="evenodd" opacity="1" stroke="none"/>
<path d="M758.209 211.754L758.179 314.316L849.401 314.572L849.401 343.548L727.223 343.548L727.223 211.931L758.209 211.754Z" fill="#f2b807" fill-rule="evenodd" opacity="1" stroke="none"/>
<path d="M874.21 314.831L882.296 314.831C888.404 314.831 893.854 313.9 898.646 312.038C903.437 310.176 907.48 307.616 910.774 304.357C914.068 301.099 916.583 297.229 918.32 292.749C920.057 288.269 920.925 283.352 920.925 277.999C920.925 272.762 920.027 267.875 918.23 263.336C916.433 258.797 913.888 254.899 910.594 251.641C907.3 248.382 903.257 245.822 898.466 243.96C893.675 242.098 888.285 241.167 882.296 241.167L874.21 241.167L874.21 314.831ZM826.322 212.19L883.987 212.19C894.194 212.19 903.772 213.994 912.72 217.602C921.668 221.209 929.489 226.01 936.183 232.003C942.878 237.996 948.147 244.978 951.991 252.95C955.836 260.921 957.758 269.271 957.758 277.999C957.758 286.611 955.869 294.902 952.091 302.874C948.313 310.845 943.077 317.856 936.382 323.908C929.688 329.959 921.867 334.789 912.919 338.396C903.971 342.004 894.327 343.808 883.987 343.808L826.322 343.808L826.322 212.19Z" fill="#f2b807" fill-rule="evenodd" opacity="1" stroke="none"/>
<path d="M1071.16 241.167L1013.2 241.167L1013.2 263.161L1067.92 263.161L1067.92 292.138L1013.2 292.138L1013.2 314.831L1071.16 314.831L1071.16 343.808L964.441 343.808L964.441 212.19L1071.16 212.19L1071.16 241.167Z" fill="#f2b807" fill-rule="evenodd" opacity="1" stroke="none"/>
<path d="M1077.71 343.808L1077.71 212.19L1111.53 212.19L1174.01 292.662L1174.01 212.19L1207.66 212.19L1207.66 343.808L1174.01 343.808L1111.53 263.336L1111.53 343.808L1077.71 343.808Z" fill="#f2b807" fill-rule="evenodd" opacity="1" stroke="none"/>
<path d="M564.018 388.797L564.018 501.912L498.55 501.912L498.55 388.797L438.815 388.797L438.102 356.862L617.795 356.862L617.795 388.797L564.018 388.797Z" fill="#f2b807" fill-rule="evenodd" opacity="1" stroke="none"/>
<path d="M689.741 421.505L703.986 421.505C718.872 421.505 730.294 419.966 738.251 416.888C746.207 413.81 750.185 409.386 750.185 403.614C750.185 397.843 746.207 393.419 738.251 390.341C730.294 387.263 718.872 385.724 703.986 385.724L689.741 385.724L689.741 421.505ZM855.674 501.725L761.735 501.725L689.741 445.937L689.741 501.725L614.282 501.725L614.282 356.675L731.706 356.675C747.875 356.675 761.992 357.862 774.055 360.234C786.118 362.607 796.064 365.845 803.892 369.949C811.721 374.053 817.624 378.798 821.602 384.185C825.58 389.571 827.57 395.342 827.57 401.498C827.57 412.528 822.244 421.473 811.592 428.335C800.941 435.196 785.22 439.845 764.43 442.282L855.674 501.725Z" fill="#f2b807" fill-rule="evenodd" opacity="1" stroke="none"/>
<path d="M1017.67 389.238L924.453 389.238L924.453 413.478L1012.47 413.478L1012.47 445.412L924.453 445.412L924.453 470.42L1017.67 470.42L1017.67 502.354L846.036 502.354L846.036 357.304L1017.67 357.304L1017.67 389.238Z" fill="#f2b807" fill-rule="evenodd" opacity="1" stroke="none"/>
<path d="M1208.06 389.238L1108.47 389.238L1108.47 413.478L1202.51 413.478L1202.51 445.412L1108.47 445.412L1108.47 470.42L1208.06 470.42L1208.06 502.354L1024.69 502.354L1024.69 357.304L1208.06 357.304L1208.06 389.238Z" fill="#f2b807" fill-rule="evenodd" opacity="1" stroke="none"/>
</g>
</g>
</g>
</svg>
